<svg xmlns="http://www.w3.org/2000/svg" width="18" height="22" viewBox="0 0 18 22"><g><g><g><g><g><path fill="#3e3e3e" d="M1.82 17.667l1.052-1.755a7.915 7.915 0 0 0 1.129-4.073V9.75C4 6.993 6.243 4.75 9 4.75c2.757 0 5 2.242 5 5v2.09c0 1.434.39 2.842 1.127 4.072l1.054 1.755zm15.455.202l-1.432-2.385a7.09 7.09 0 0 1-1.009-3.645V9.75a5.84 5.84 0 0 0-5.833-5.832A5.84 5.84 0 0 0 3.167 9.75v2.09a7.09 7.09 0 0 1-1.009 3.644L.727 17.87a.417.417 0 0 0 .357.63h15.833a.418.418 0 0 0 .358-.63z"/><path fill="none" stroke="#3e3e3e" stroke-miterlimit="50" stroke-width=".2" d="M1.82 17.667l1.052-1.755a7.915 7.915 0 0 0 1.129-4.073V9.75C4 6.993 6.243 4.75 9 4.75c2.757 0 5 2.242 5 5v2.09c0 1.434.39 2.842 1.127 4.072l1.054 1.755zm15.455.202l-1.432-2.385a7.09 7.09 0 0 1-1.009-3.645V9.75a5.84 5.84 0 0 0-5.833-5.832A5.84 5.84 0 0 0 3.167 9.75v2.09a7.09 7.09 0 0 1-1.009 3.644L.727 17.87a.417.417 0 0 0 .357.63h15.833a.418.418 0 0 0 .358-.63z"/></g></g></g><g><g><g><path fill="#3e3e3e" d="M9 1c-.919 0-1.666.747-1.666 1.667v1.666a.417.417 0 0 0 .833 0V2.667a.834.834 0 0 1 1.667 0v1.666a.417.417 0 0 0 .833 0V2.667C10.667 1.747 9.92 1 9.001 1z"/><path fill="none" stroke="#3e3e3e" stroke-miterlimit="50" stroke-width=".2" d="M9 1c-.919 0-1.666.747-1.666 1.667v1.666a.417.417 0 0 0 .833 0V2.667a.834.834 0 0 1 1.667 0v1.666a.417.417 0 0 0 .833 0V2.667C10.667 1.747 9.92 1 9.001 1z"/></g></g></g><g><g><g><path fill="#3e3e3e" d="M10.804 17.872a.417.417 0 1 0-.72.422c.108.184.168.405.168.622 0 .69-.561 1.25-1.25 1.25a1.252 1.252 0 0 1-1.083-1.872.418.418 0 0 0-.72-.422 2.085 2.085 0 1 0 3.887 1.044c0-.368-.098-.729-.282-1.044z"/><path fill="none" stroke="#3e3e3e" stroke-miterlimit="50" stroke-width=".2" d="M10.804 17.872a.417.417 0 1 0-.72.422c.108.184.168.405.168.622 0 .69-.561 1.25-1.25 1.25a1.252 1.252 0 0 1-1.083-1.872.418.418 0 0 0-.72-.422 2.085 2.085 0 1 0 3.887 1.044c0-.368-.098-.729-.282-1.044z"/></g></g></g></g></g></svg>