<svg xmlns="http://www.w3.org/2000/svg" width="22" height="14" viewBox="0 0 22 14"><g><g><g><g><g><path fill="#3e3e3e" d="M20.583 1H1.417a.417.417 0 0 0 0 .833h19.166a.417.417 0 0 0 0-.833z"/><path fill="none" stroke="#3e3e3e" stroke-miterlimit="50" stroke-width=".5" d="M20.583 1H1.417a.417.417 0 0 0 0 .833h19.166a.417.417 0 0 0 0-.833z"/></g></g></g><g><g><g><path fill="#3e3e3e" d="M20.583 6.833H1.417a.417.417 0 0 0 0 .834h19.166a.417.417 0 0 0 0-.834z"/><path fill="none" stroke="#3e3e3e" stroke-miterlimit="50" stroke-width=".5" d="M20.583 6.833H1.417a.417.417 0 0 0 0 .834h19.166a.417.417 0 0 0 0-.834z"/></g></g></g><g><g><g><path fill="#3e3e3e" d="M20.583 12.667H1.417a.417.417 0 0 0 0 .833h19.166a.417.417 0 0 0 0-.833z"/><path fill="none" stroke="#3e3e3e" stroke-miterlimit="50" stroke-width=".5" d="M20.583 12.667H1.417a.417.417 0 0 0 0 .833h19.166a.417.417 0 0 0 0-.833z"/></g></g></g></g></g></svg>