<svg xmlns="http://www.w3.org/2000/svg" width="20" height="20" viewBox="0 0 20 20"><defs><radialGradient id="qouja" cx=".07" cy="0" r="0" gradientUnits="userSpaceOnUse"><stop offset="0" stop-color="#f9ed41"/><stop offset=".24" stop-color="#ff833d"/><stop offset=".4" stop-color="#ee5468"/><stop offset=".49" stop-color="#e7407b"/><stop offset="1" stop-color="#0028ff"/></radialGradient></defs><g><g><g><path fill="url(#qouja)" d="M.067 10c0-5 5-10 10-10s10 5 10 10-5 10-10 10-10-5-10-10z"/></g><g><g><path fill="#fff" d="M12.254 5.204a2.612 2.612 0 0 1 2.609 2.61v4.372a2.612 2.612 0 0 1-2.61 2.61H7.88a2.612 2.612 0 0 1-2.608-2.61V7.813A2.612 2.612 0 0 1 7.88 5.204zm3.453 6.982V7.813a3.457 3.457 0 0 0-3.453-3.453H7.88a3.457 3.457 0 0 0-3.453 3.453v4.373A3.458 3.458 0 0 0 7.88 15.64h4.374a3.457 3.457 0 0 0 3.453-3.454z"/></g><g><path fill="#fff" d="M12.056 10a1.99 1.99 0 0 1-1.989 1.988A1.99 1.99 0 0 1 8.079 10a1.99 1.99 0 0 1 1.988-1.989A1.99 1.99 0 0 1 12.056 10zm.865 0a2.857 2.857 0 0 0-2.854-2.854A2.857 2.857 0 0 0 7.214 10a2.857 2.857 0 0 0 2.853 2.853A2.857 2.857 0 0 0 12.921 10z"/></g><g><path fill="#fff" d="M13.974 6.836a.743.743 0 1 1-1.486 0 .743.743 0 0 1 1.486 0z"/></g></g></g></g></svg>