<svg xmlns="http://www.w3.org/2000/svg" width="19" height="19" viewBox="0 0 19 19"><g><g><g><g><g><g><path fill="#3e3e3e" d="M9.337 14.487c.606 0 1.19-.07 1.753-.19l2.442 1.468-.032-2.406c1.872-1.126 3.1-2.987 3.1-5.097 0-3.437-3.252-6.224-7.263-6.224S2.074 4.825 2.074 8.262c0 3.438 3.252 6.225 7.263 6.225zM9.337 1c4.583 0 8.3 3.252 8.3 7.262 0 2.293-1.217 4.334-3.113 5.665V17.6l-3.636-2.206a9.518 9.518 0 0 1-1.551.131c-4.585 0-8.3-3.252-8.3-7.263C1.037 4.252 4.752 1 9.337 1zM5.705 6.706h7.263a.519.519 0 0 1 0 1.038H5.705a.519.519 0 0 1 0-1.038zM6.743 9.82h5.187a.519.519 0 0 1 0 1.037H6.743a.519.519 0 0 1 0-1.037z"/><path fill="none" stroke="#3e3e3e" stroke-miterlimit="50" stroke-width=".3" d="M9.337 14.487c.606 0 1.19-.07 1.753-.19l2.442 1.468-.032-2.406c1.872-1.126 3.1-2.987 3.1-5.097 0-3.437-3.252-6.224-7.263-6.224S2.074 4.825 2.074 8.262c0 3.438 3.252 6.225 7.263 6.225zM9.337 1c4.583 0 8.3 3.252 8.3 7.262 0 2.293-1.217 4.334-3.113 5.665V17.6l-3.636-2.206a9.518 9.518 0 0 1-1.551.131c-4.585 0-8.3-3.252-8.3-7.263C1.037 4.252 4.752 1 9.337 1zM5.705 6.706h7.263a.519.519 0 0 1 0 1.038H5.705a.519.519 0 0 1 0-1.038zM6.743 9.82h5.187a.519.519 0 0 1 0 1.037H6.743a.519.519 0 0 1 0-1.037z"/></g></g></g></g><g><path fill="#fff" d="M4.604 11.66v-6.3h9v6.3z"/></g></g></g></svg>