<svg xmlns="http://www.w3.org/2000/svg" width="18" height="5" viewBox="0 0 18 5"><g><g><g><path fill="#3e3e3e" d="M-.013 2.632c0-1.05.853-1.903 1.906-1.903a1.904 1.904 0 0 1 0 3.805A1.904 1.904 0 0 1-.013 2.632z"/></g><g><path fill="#3e3e3e" d="M6.656 2.632c0-1.05.854-1.903 1.906-1.903s1.905.852 1.905 1.903c0 1.05-.853 1.902-1.905 1.902a1.904 1.904 0 0 1-1.906-1.902z"/></g><g><path fill="#3e3e3e" d="M13.325 2.632c0-1.05.853-1.903 1.905-1.903s1.906.852 1.906 1.903c0 1.05-.854 1.902-1.906 1.902a1.904 1.904 0 0 1-1.905-1.902z"/></g></g></g></svg>