<svg xmlns="http://www.w3.org/2000/svg" width="17" height="16" viewBox="0 0 17 16"><g><g><path fill="#3e3e3e" d="M5.298 1.73c.683 0 1.311.218 1.865.647.494.382.839.865 1.04 1.203a.564.564 0 0 0 .489.278.564.564 0 0 0 .488-.278 4.373 4.373 0 0 1 1.04-1.203 2.989 2.989 0 0 1 1.866-.646c.933 0 1.791.372 2.415 1.049.633.687.982 1.636.982 2.673 0 1.094-.407 2.073-1.319 3.173-.881 1.063-2.192 2.18-3.71 3.474-.531.453-1.134.966-1.763 1.515-.627-.548-1.228-1.06-1.759-1.513L6.93 12.1C5.412 10.806 4.1 9.69 3.22 8.626 2.308 7.526 1.9 6.547 1.9 5.453c0-1.037.349-1.986.982-2.673a3.245 3.245 0 0 1 2.415-1.05zm3.394 12.786c.219 0 .43-.08.594-.223a176.53 176.53 0 0 1 1.753-1.508c1.55-1.32 2.888-2.46 3.819-3.584 1.04-1.256 1.526-2.447 1.526-3.748 0-1.264-.434-2.43-1.22-3.284a4.137 4.137 0 0 0-3.078-1.34 3.87 3.87 0 0 0-2.417.835c-.361.28-.689.621-.977 1.02a4.945 4.945 0 0 0-.977-1.02A3.87 3.87 0 0 0 5.298.83c-1.189 0-2.281.475-3.078 1.339C1.434 3.023 1 4.189 1 5.453c0 1.3.485 2.492 1.526 3.748.931 1.123 2.27 2.264 3.82 3.585l.002.002c.529.45 1.128.961 1.75 1.505a.902.902 0 0 0 .594.223z"/><path fill="none" stroke="#3e3e3e" stroke-miterlimit="50" stroke-width=".4" d="M5.298 1.73c.683 0 1.311.218 1.865.647.494.382.839.865 1.04 1.203a.564.564 0 0 0 .489.278.564.564 0 0 0 .488-.278 4.373 4.373 0 0 1 1.04-1.203 2.989 2.989 0 0 1 1.866-.646c.933 0 1.791.372 2.415 1.049.633.687.982 1.636.982 2.673 0 1.094-.407 2.073-1.319 3.173-.881 1.063-2.192 2.18-3.71 3.474-.531.453-1.134.966-1.763 1.515-.627-.548-1.228-1.06-1.759-1.513L6.93 12.1C5.412 10.806 4.1 9.69 3.22 8.626 2.308 7.526 1.9 6.547 1.9 5.453c0-1.037.349-1.986.982-2.673a3.245 3.245 0 0 1 2.415-1.05zm3.394 12.786c.219 0 .43-.08.594-.223a176.53 176.53 0 0 1 1.753-1.508c1.55-1.32 2.888-2.46 3.819-3.584 1.04-1.256 1.526-2.447 1.526-3.748 0-1.264-.434-2.43-1.22-3.284a4.137 4.137 0 0 0-3.078-1.34 3.87 3.87 0 0 0-2.417.835c-.361.28-.689.621-.977 1.02a4.945 4.945 0 0 0-.977-1.02A3.87 3.87 0 0 0 5.298.83c-1.189 0-2.281.475-3.078 1.339C1.434 3.023 1 4.189 1 5.453c0 1.3.485 2.492 1.526 3.748.931 1.123 2.27 2.264 3.82 3.585l.002.002c.529.45 1.128.961 1.75 1.505a.902.902 0 0 0 .594.223z"/></g></g></svg>