<svg xmlns="http://www.w3.org/2000/svg" width="13" height="17" viewBox="0 0 13 17"><g><g><g><g><path fill="#3e3e3e" d="M11.532 13.252l-1.72 1.825v-1.825zM1.512 1.53h10.352v11.192H9.568c-.142 0-.268.108-.268.254v2.494H1.513zM1.27 1C1.13 1 1 1.112 1 1.258v14.477c0 .146.129.265.27.265h8.298c.07 0 .136-.03.184-.081l2.56-2.76a.264.264 0 0 0 .065-.183V1.258a.252.252 0 0 0-.068-.183.236.236 0 0 0-.175-.075z"/><path fill="none" stroke="#3e3e3e" stroke-miterlimit="50" stroke-width=".2" d="M11.532 13.252l-1.72 1.825v-1.825zM1.512 1.53h10.352v11.192H9.568c-.142 0-.268.108-.268.254v2.494H1.513zM1.27 1C1.13 1 1 1.112 1 1.258v14.477c0 .146.129.265.27.265h8.298c.07 0 .136-.03.184-.081l2.56-2.76a.264.264 0 0 0 .065-.183V1.258a.252.252 0 0 0-.068-.183.236.236 0 0 0-.175-.075z"/></g><g><path fill="#3e3e3e" d="M3.063 10.669h7.08a.26.26 0 0 0 .256-.265.26.26 0 0 0-.256-.265h-7.08a.26.26 0 0 0-.257.265.26.26 0 0 0 .257.265z"/><path fill="none" stroke="#3e3e3e" stroke-miterlimit="50" stroke-width=".2" d="M3.063 10.669h7.08a.26.26 0 0 0 .256-.265.26.26 0 0 0-.256-.265h-7.08a.26.26 0 0 0-.257.265.26.26 0 0 0 .257.265z"/></g><g><path fill="#3e3e3e" d="M7.164 11.927H3.063a.26.26 0 0 0-.257.265.26.26 0 0 0 .257.265h4.101a.26.26 0 0 0 .257-.265.26.26 0 0 0-.257-.265z"/><path fill="none" stroke="#3e3e3e" stroke-miterlimit="50" stroke-width=".2" d="M7.164 11.927H3.063a.26.26 0 0 0-.257.265.26.26 0 0 0 .257.265h4.101a.26.26 0 0 0 .257-.265.26.26 0 0 0-.257-.265z"/></g><g><path fill="#3e3e3e" d="M3.307 3.45h6.57v4.702h-6.57zm7.083-.265a.26.26 0 0 0-.257-.264H3.051a.26.26 0 0 0-.256.264v5.232a.26.26 0 0 0 .256.265h7.082a.26.26 0 0 0 .257-.265z"/><path fill="none" stroke="#3e3e3e" stroke-miterlimit="50" stroke-width=".2" d="M3.307 3.45h6.57v4.702h-6.57zm7.083-.265a.26.26 0 0 0-.257-.264H3.051a.26.26 0 0 0-.256.264v5.232a.26.26 0 0 0 .256.265h7.082a.26.26 0 0 0 .257-.265z"/></g></g></g></g></svg>