<svg xmlns="http://www.w3.org/2000/svg" width="16" height="17" viewBox="0 0 16 17"><g><g><g><g><path fill="#3e3e3e" d="M13.323 12.7a.271.271 0 0 0-.066.201l.2 2.295-2.138-.903a.275.275 0 0 0-.212 0l-2.135.899.201-2.294a.273.273 0 0 0-.08-.219l-1.506-1.73 2.258-.507a.274.274 0 0 0 .18-.135l1.19-1.963 1.193 1.973c.04.064.103.11.177.125l2.258.52zm-9.111 1.029l.359-4.112a.273.273 0 0 0-.08-.22l-2.71-3.1 4.047-.931a.274.274 0 0 0 .18-.135l2.135-3.527 2.142 3.536c.038.064.101.11.174.126l4.047.931-2.296 2.627-.758-1.258a.275.275 0 0 0-.475 0L9.609 9.93l-2.589.595a.272.272 0 0 0-.145.443l1.045 1.196zm11.331-3.14a.276.276 0 0 0-.127-.068l-2.596-.59-.317-.516 2.709-3.094a.272.272 0 0 0-.138-.455L10.697 4.86 8.38 1.037a.275.275 0 0 0-.475 0L5.591 4.859 1.213 5.866a.272.272 0 0 0-.146.444l2.945 3.373-.388 4.45a.273.273 0 0 0 .38.275l4.139-1.744.326.138.14.157-.23 2.632a.273.273 0 0 0 .38.276l2.455-1.02 2.424 1.021a.276.276 0 0 0 .404-.264l-.23-2.645 1.742-1.983a.272.272 0 0 0-.011-.387z"/><path fill="none" stroke="#3e3e3e" stroke-miterlimit="50" stroke-width=".2" d="M13.323 12.7a.271.271 0 0 0-.066.201l.2 2.295-2.138-.903a.275.275 0 0 0-.212 0l-2.135.899.201-2.294a.273.273 0 0 0-.08-.219l-1.506-1.73 2.258-.507a.274.274 0 0 0 .18-.135l1.19-1.963 1.193 1.973c.04.064.103.11.177.125l2.258.52zm-9.111 1.029l.359-4.112a.273.273 0 0 0-.08-.22l-2.71-3.1 4.047-.931a.274.274 0 0 0 .18-.135l2.135-3.527 2.142 3.536c.038.064.101.11.174.126l4.047.931-2.296 2.627-.758-1.258a.275.275 0 0 0-.475 0L9.609 9.93l-2.589.595a.272.272 0 0 0-.145.443l1.045 1.196zm11.331-3.14a.276.276 0 0 0-.127-.068l-2.596-.59-.317-.516 2.709-3.094a.272.272 0 0 0-.138-.455L10.697 4.86 8.38 1.037a.275.275 0 0 0-.475 0L5.591 4.859 1.213 5.866a.272.272 0 0 0-.146.444l2.945 3.373-.388 4.45a.273.273 0 0 0 .38.275l4.139-1.744.326.138.14.157-.23 2.632a.273.273 0 0 0 .38.276l2.455-1.02 2.424 1.021a.276.276 0 0 0 .404-.264l-.23-2.645 1.742-1.983a.272.272 0 0 0-.011-.387z"/></g></g></g></g></svg>