<svg xmlns="http://www.w3.org/2000/svg" width="20" height="13" viewBox="0 0 20 13"><g><g><g><path fill="#3e3e3e" d="M11.402 10.31a6.078 6.078 0 0 0-.868-1.92c.76-1.27 2.11-2.114 3.646-2.114 2.223 0 4.058 1.773 4.275 4.034zm-.66 1.793H.86v-.224c0-2.842 2.218-5.155 4.942-5.155s4.941 2.313 4.941 5.155zm-7.305-8.74c0-1.361 1.06-2.466 2.364-2.466 1.304 0 2.363 1.105 2.363 2.465 0 1.36-1.06 2.466-2.363 2.466-1.304 0-2.364-1.105-2.364-2.466zm9.024.223c0-.988.771-1.793 1.719-1.793.947 0 1.718.805 1.718 1.793 0 .989-.77 1.793-1.718 1.793s-1.72-.804-1.72-1.793zm3.358 2.073c.574-.493.939-1.239.939-2.073 0-1.484-1.156-2.69-2.578-2.69-1.423 0-2.578 1.206-2.578 2.69 0 .834.365 1.58.938 2.073A5.219 5.219 0 0 0 9.962 7.67a5.774 5.774 0 0 0-2.341-1.535 3.404 3.404 0 0 0 1.402-2.773C9.023 1.508 7.578 0 5.801 0S2.578 1.508 2.578 3.362c0 1.15.557 2.165 1.403 2.773C1.671 6.933 0 9.205 0 11.879v.673A.44.44 0 0 0 .43 13h10.742a.44.44 0 0 0 .43-.448v-.673c0-.226-.013-.45-.037-.672h7.341a.44.44 0 0 0 .43-.448c0-2.367-1.476-4.382-3.517-5.1z"/></g></g></g></svg>