<svg xmlns="http://www.w3.org/2000/svg" width="14" height="17" viewBox="0 0 14 17"><g><g><g><g><g><path fill="#3e3e3e" d="M1.865 13.5l.789-1.316A5.936 5.936 0 0 0 3.5 9.13V7.562a3.754 3.754 0 0 1 3.75-3.75A3.754 3.754 0 0 1 11 7.562V9.13c0 1.077.293 2.133.846 3.055l.79 1.316zm11.591.152l-1.074-1.789a5.317 5.317 0 0 1-.757-2.734V7.562A4.38 4.38 0 0 0 7.25 3.188a4.38 4.38 0 0 0-4.375 4.374V9.13c0 .964-.262 1.909-.757 2.734l-1.073 1.789a.312.312 0 0 0 .268.473h11.875a.314.314 0 0 0 .268-.473z"/><path fill="none" stroke="#3e3e3e" stroke-miterlimit="50" stroke-width=".2" d="M1.865 13.5l.789-1.316A5.936 5.936 0 0 0 3.5 9.13V7.562a3.754 3.754 0 0 1 3.75-3.75A3.754 3.754 0 0 1 11 7.562V9.13c0 1.077.293 2.133.846 3.055l.79 1.316zm11.591.152l-1.074-1.789a5.317 5.317 0 0 1-.757-2.734V7.562A4.38 4.38 0 0 0 7.25 3.188a4.38 4.38 0 0 0-4.375 4.374V9.13c0 .964-.262 1.909-.757 2.734l-1.073 1.789a.312.312 0 0 0 .268.473h11.875a.314.314 0 0 0 .268-.473z"/></g></g></g><g><g><g><path fill="#3e3e3e" d="M7.25 1C6.56 1 6 1.56 6 2.25V3.5a.313.313 0 0 0 .625 0V2.25a.625.625 0 0 1 1.25 0V3.5a.313.313 0 0 0 .625 0V2.25C8.5 1.56 7.94 1 7.25 1z"/><path fill="none" stroke="#3e3e3e" stroke-miterlimit="50" stroke-width=".2" d="M7.25 1C6.56 1 6 1.56 6 2.25V3.5a.313.313 0 0 0 .625 0V2.25a.625.625 0 0 1 1.25 0V3.5a.313.313 0 0 0 .625 0V2.25C8.5 1.56 7.94 1 7.25 1z"/></g></g></g><g><g><g><path fill="#3e3e3e" d="M8.603 13.654a.313.313 0 1 0-.54.316.939.939 0 1 1-1.75.467c0-.163.045-.328.126-.466a.314.314 0 0 0-.54-.317 1.564 1.564 0 1 0 2.915.783c0-.276-.073-.546-.211-.783z"/><path fill="none" stroke="#3e3e3e" stroke-miterlimit="50" stroke-width=".2" d="M8.603 13.654a.313.313 0 1 0-.54.316.939.939 0 1 1-1.75.467c0-.163.045-.328.126-.466a.314.314 0 0 0-.54-.317 1.564 1.564 0 1 0 2.915.783c0-.276-.073-.546-.211-.783z"/></g></g></g></g></g></svg>