<svg xmlns="http://www.w3.org/2000/svg" width="15" height="17" viewBox="0 0 15 17"><g><g><g><g><path fill="#3e3e3e" d="M13.918 10.55c-.543 2.344-3.412 3.713-3.9 3.938-.487-.225-3.375-1.594-3.9-3.938-.318-1.406.432-2.4 1.275-2.737.225-.094.47-.15.732-.15.6 0 1.256.281 1.743 1.087a.193.193 0 0 0 .32 0c.712-1.143 1.743-1.237 2.474-.937.825.337 1.575 1.331 1.256 2.737zM1.45 15.67V6.575h9.187V7.7c-.225.169-.45.375-.637.619-.694-.937-1.763-1.275-2.775-.862-.975.393-1.875 1.556-1.5 3.168.262 1.144 1.087 2.232 2.362 3.169.956.694 1.819 1.05 1.856 1.069.02 0 .038.019.075.019.038 0 .057 0 .075-.02.02 0 .225-.093.563-.262v1.069zm9.187-14.25V6.2H1.45V1.42zm2.138 6.038a2.212 2.212 0 0 0-1.763.018V1.232c0-.113-.075-.188-.187-.188H1.262c-.112 0-.187.075-.187.188v14.625c0 .112.075.187.187.187h9.563c.112 0 .187-.075.187-.187v-1.482c.281-.15.6-.356.919-.6 1.275-.918 2.081-2.025 2.344-3.15.375-1.612-.507-2.775-1.5-3.168z"/><path fill="none" stroke="#3e3e3e" stroke-miterlimit="50" stroke-width=".4" d="M13.918 10.55c-.543 2.344-3.412 3.713-3.9 3.938-.487-.225-3.375-1.594-3.9-3.938-.318-1.406.432-2.4 1.275-2.737.225-.094.47-.15.732-.15.6 0 1.256.281 1.743 1.087a.193.193 0 0 0 .32 0c.712-1.143 1.743-1.237 2.474-.937.825.337 1.575 1.331 1.256 2.737zM1.45 15.67V6.575h9.187V7.7c-.225.169-.45.375-.637.619-.694-.937-1.763-1.275-2.775-.862-.975.393-1.875 1.556-1.5 3.168.262 1.144 1.087 2.232 2.362 3.169.956.694 1.819 1.05 1.856 1.069.02 0 .038.019.075.019.038 0 .057 0 .075-.02.02 0 .225-.093.563-.262v1.069zm9.187-14.25V6.2H1.45V1.42zm2.138 6.038a2.212 2.212 0 0 0-1.763.018V1.232c0-.113-.075-.188-.187-.188H1.262c-.112 0-.187.075-.187.188v14.625c0 .112.075.187.187.187h9.563c.112 0 .187-.075.187-.187v-1.482c.281-.15.6-.356.919-.6 1.275-.918 2.081-2.025 2.344-3.15.375-1.612-.507-2.775-1.5-3.168z"/></g><g><path fill="#3e3e3e" d="M3.625 2.507c.6 0 1.106.487 1.106 1.106 0 .619-.488 1.106-1.106 1.106-.6 0-1.107-.487-1.107-1.106 0-.619.507-1.106 1.107-1.106zm0 2.587c.806 0 1.48-.656 1.48-1.481 0-.825-.655-1.481-1.48-1.481s-1.482.656-1.482 1.48c0 .826.675 1.482 1.482 1.482z"/><path fill="none" stroke="#3e3e3e" stroke-miterlimit="50" stroke-width=".4" d="M3.625 2.507c.6 0 1.106.487 1.106 1.106 0 .619-.488 1.106-1.106 1.106-.6 0-1.107-.487-1.107-1.106 0-.619.507-1.106 1.107-1.106zm0 2.587c.806 0 1.48-.656 1.48-1.481 0-.825-.655-1.481-1.48-1.481s-1.482.656-1.482 1.48c0 .826.675 1.482 1.482 1.482z"/></g><g><path fill="#3e3e3e" d="M6.23 2.694h3.245v.713H6.23zM6.044 3.8h3.62c.112 0 .187-.075.187-.187V2.525c0-.112-.075-.187-.188-.187H6.043c-.112 0-.187.075-.187.187v1.088c0 .094.094.187.187.187z"/><path fill="none" stroke="#3e3e3e" stroke-miterlimit="50" stroke-width=".4" d="M6.23 2.694h3.245v.713H6.23zM6.044 3.8h3.62c.112 0 .187-.075.187-.187V2.525c0-.112-.075-.187-.188-.187H6.043c-.112 0-.187.075-.187.187v1.088c0 .094.094.187.187.187z"/></g></g></g></g></svg>