<svg xmlns="http://www.w3.org/2000/svg" width="17" height="17" viewBox="0 0 17 17"><g><g><path fill="#9e9e9e" d="M1.895 7.777a5.504 5.504 0 0 1 5.5-5.498 5.504 5.504 0 0 1 5.498 5.498 5.507 5.507 0 0 1-5.499 5.5 5.507 5.507 0 0 1-5.499-5.5zm10.33 4.194a6.37 6.37 0 0 0 1.57-4.194A6.403 6.403 0 0 0 7.397 1.38 6.403 6.403 0 0 0 1 7.777a6.405 6.405 0 0 0 6.397 6.395c1.604 0 3.071-.592 4.195-1.57l3.646 3.646a.452.452 0 0 0 .316.133.45.45 0 0 0 .316-.765z"/><path fill="none" stroke="#9e9e9e" stroke-miterlimit="50" stroke-width=".2" d="M1.895 7.777a5.504 5.504 0 0 1 5.5-5.498 5.504 5.504 0 0 1 5.498 5.498 5.507 5.507 0 0 1-5.499 5.5 5.507 5.507 0 0 1-5.499-5.5zm10.33 4.194a6.37 6.37 0 0 0 1.57-4.194A6.403 6.403 0 0 0 7.397 1.38 6.403 6.403 0 0 0 1 7.777a6.405 6.405 0 0 0 6.397 6.395c1.604 0 3.071-.592 4.195-1.57l3.646 3.646a.452.452 0 0 0 .316.133.45.45 0 0 0 .316-.765z"/></g></g></svg>