<svg xmlns="http://www.w3.org/2000/svg" width="17" height="18" viewBox="0 0 17 18"><g><g><g><path fill="#3e3e3e" d="M13.888 16.282a2.089 2.089 0 0 1-2.098-2.076c0-1.146.94-2.076 2.098-2.076 1.157 0 2.097.93 2.097 2.076 0 1.145-.94 2.076-2.097 2.076zm-9.994-5.435a2.089 2.089 0 0 1-2.097-2.076c0-1.145.94-2.076 2.097-2.076s2.098.931 2.098 2.076c0 1.146-.944 2.076-2.098 2.076zm9.994-9.579c1.157 0 2.097.931 2.097 2.076 0 1.146-.94 2.076-2.097 2.076a2.089 2.089 0 0 1-2.098-2.076c0-1.145.944-2.076 2.098-2.076zm0 9.917a3.07 3.07 0 0 0-2.42 1.18L6.771 9.769A3.007 3.007 0 0 0 6.77 7.77l4.691-2.592a3.062 3.062 0 0 0 2.424 1.187c1.682 0 3.056-1.356 3.056-3.024 0-1.669-1.37-3.025-3.056-3.025S10.83 1.672 10.83 3.341c0 .351.06.688.173 1.001L6.315 6.934A3.051 3.051 0 0 0 3.89 5.747C2.209 5.747.835 7.103.835 8.771c0 1.669 1.374 3.025 3.06 3.025.986 0 1.866-.467 2.427-1.19l4.691 2.595a2.983 2.983 0 0 0-.177 1.008c0 1.665 1.37 3.025 3.055 3.025 1.686 0 3.056-1.356 3.056-3.025 0-1.668-1.374-3.024-3.06-3.024z"/></g></g></g></svg>