<svg xmlns="http://www.w3.org/2000/svg" width="20" height="20" viewBox="0 0 20 20"><defs><clipPath id="oz8ra"><path fill="#fff" d="M10 0c5.523 0 10 4.477 10 10s-4.477 10-10 10S0 15.523 0 10 4.477 0 10 0z"/></clipPath></defs><g><g><g><path fill="#3e3e3e" d="M10.164 11.641A2.567 2.567 0 0 1 7.6 9.078a2.567 2.567 0 0 1 2.564-2.564 2.567 2.567 0 0 1 2.564 2.564 2.567 2.567 0 0 1-2.564 2.563zm4.297 1.78a6.054 6.054 0 0 0-2.31-1.448 3.512 3.512 0 0 0-1.987-6.409 3.512 3.512 0 1 0-1.988 6.408 6.054 6.054 0 0 0-2.31 1.45 6.037 6.037 0 0 0-1.78 4.296h.95c0-2.827 2.3-5.127 5.128-5.127 2.827 0 5.127 2.3 5.127 5.127h.95c0-1.623-.632-3.149-1.78-4.297z"/></g></g><g><path fill="none" stroke="#3e3e3e" stroke-miterlimit="50" stroke-width="2" d="M10 0c5.523 0 10 4.477 10 10s-4.477 10-10 10S0 15.523 0 10 4.477 0 10 0z" clip-path="url(&quot;#oz8ra&quot;)"/></g></g></svg>